<svg width="1213" height="219" viewBox="0 0 1213 219" fill="none" xmlns="http://www.w3.org/2000/svg">
<g opacity="0.1" clip-path="url(#clip0)">
<path fill-rule="evenodd" clip-rule="evenodd" d="M332.359 197.247C208.216 197.247 201.367 196.909 179.218 191.339C157.07 185.768 143.757 185.768 124.126 191.339C104.497 196.909 92.9529 193.59 54.6078 177.349C26.3663 165.388 -6.95312 165.388 -6.95312 177.25V212.078L74.0918 228.602C329.033 207.699 415.122 197.247 332.359 197.247Z" fill="#624DE3"/>
<path fill-rule="evenodd" clip-rule="evenodd" d="M1300.73 236.318L1313.31 421.381L1323.55 421.405C1334.13 847.302 1339.35 1062.8 1339.22 1067.91L1339.22 1068C1271.42 1029.96 1155.18 1006.04 1043.26 998.433C931.347 990.825 687.327 1000.39 670.385 1001.14C653.443 1001.9 545.238 1003.95 524.624 965.211C503.524 925.556 619.815 910.258 603.246 889.975C586.676 869.692 508.553 870.121 458.072 866.305C407.59 862.488 274.751 845.051 261.341 812.878C247.931 780.704 295.624 773.891 308.982 767.159C332.614 755.247 350.551 746.365 320.417 728.188C284.99 706.817 221.932 706.695 201.509 706.845C165.844 707.107 -55.6082 714.354 -124.35 714.424C-184.773 714.486 -269.413 707.064 -353.622 701.814C-373.162 700.595 -391.947 702.058 -412.473 701.348C-521.457 697.576 -563.09 725.804 -577.262 718.989C-597.056 709.47 -593.612 612.26 -566.929 427.36C-648.362 415.966 -708.244 377.905 -708.336 332.677C-708.431 285.983 -644.2 245.704 -554.68 236.318C-245.444 203.894 373.027 203.894 1300.73 236.318Z" fill="#E0DBF9"/>
<path fill-rule="evenodd" clip-rule="evenodd" d="M-832.983 196H1335V408H-832.983C-848.139 408 -860.426 402.715 -860.426 396.195V207.805C-860.426 201.285 -848.139 196 -832.983 196Z" fill="#624DE3"/>
<path fill-rule="evenodd" clip-rule="evenodd" d="M859.409 195.474C968.346 195.474 1031.64 156.62 1086.12 83.1974C1090.88 76.7861 1100.7 52.1149 1114.92 53.207C1120.82 53.6593 1127.47 58.5384 1134.82 70.9792C1142.68 84.2604 1152.87 105.261 1161.98 105.875C1168.85 106.34 1179.38 94.2503 1193.57 69.6076C1215.51 40.4497 1229.38 22.3556 1235.17 15.3247C1243.86 4.77892 1261.91 -11.4197 1283.96 12.0858C1298.66 27.7562 1360.36 93.1196 1469.07 208.176L1513 276.495C965.306 222.481 747.443 195.474 859.409 195.474Z" fill="#624DE3"/>
</g>
<defs>
<clipPath id="clip0">
<rect width="1335" height="1065" fill="white"/>
</clipPath>
</defs>
</svg>
